<?xml version="1.0" encoding="UTF-8" standalone="no"?>
<svg
   xmlns:dc="http://purl.org/dc/elements/1.1/"
   xmlns:cc="http://creativecommons.org/ns#"
   xmlns:rdf="http://www.w3.org/1999/02/22-rdf-syntax-ns#"
   xmlns:svg="http://www.w3.org/2000/svg"
   xmlns="http://www.w3.org/2000/svg"
   xmlns:sodipodi="http://sodipodi.sourceforge.net/DTD/sodipodi-0.dtd"
   xmlns:inkscape="http://www.inkscape.org/namespaces/inkscape"
   sodipodi:docname="GMeet Recorder.svg"
   inkscape:version="1.0 (4035a4fb49, 2020-05-01)"
   id="svg8"
   version="1.1"
   viewBox="0 0 700.64697 277.173"
   height="277.173mm"
   width="700.64697mm">
  <defs
     id="defs2" />
  <sodipodi:namedview
     inkscape:window-maximized="1"
     inkscape:window-y="389"
     inkscape:window-x="1272"
     inkscape:window-height="1027"
     inkscape:window-width="1920"
     inkscape:snap-global="true"
     inkscape:guide-bbox="true"
     showguides="true"
     showgrid="false"
     inkscape:document-rotation="0"
     inkscape:current-layer="layer1"
     inkscape:document-units="mm"
     inkscape:cy="1001.0117"
     inkscape:cx="1273.4535"
     inkscape:zoom="0.35000001"
     inkscape:pageshadow="2"
     inkscape:pageopacity="0.0"
     borderopacity="1.0"
     bordercolor="#666666"
     pagecolor="#ffffff"
     id="base" />
  <metadata
     id="metadata5">
    <rdf:RDF>
      <cc:Work
         rdf:about="">
        <dc:format>image/svg+xml</dc:format>
        <dc:type
           rdf:resource="http://purl.org/dc/dcmitype/StillImage" />
        <dc:title />
      </cc:Work>
    </rdf:RDF>
  </metadata>
  <g
     id="layer1"
     inkscape:groupmode="layer"
     inkscape:label="Capa 1">
    <g
       transform="translate(-1.1101918,1.63231)"
       id="g969">
      <path
         style="fill:#ffba00;fill-opacity:1;stroke-width:0.999997"
         d="M 115.81601,273.87843 C 37.207898,258.93802 -13.072477,182.88095 4.676049,105.76139 16.424267,54.713536 57.509929,13.628015 108.5577,1.8796871 c 46.59347,-10.723206 95.78084,3.4926753 129.4188,37.4037959 54.21468,54.655362 54.14958,141.454307 -0.1463,195.750357 -18.17263,18.17245 -39.10476,30.06054 -64.7081,36.74998 -15.30942,3.99994 -42.12447,4.98001 -57.30619,2.09461 z m 62.9365,-13.97386 c 20.59523,-6.7552 35.60435,-16.10635 51.72327,-32.2252 16.03163,-16.03175 25.36344,-30.95868 32.33555,-51.72341 4.59401,-13.68282 4.76761,-15.09789 4.76761,-38.86276 0,-23.76489 -0.1734,-25.17996 -4.76761,-38.862768 C 256.54122,79.556874 246.81151,63.283829 233.60149,49.377058 208.31605,22.758059 181.39501,10.36111 145.75866,8.9261677 103.48229,7.2238652 68.594645,22.372498 41.401704,54.239336 19.815372,79.535934 10.312458,107.9437 11.72246,142.96236 c 0.805301,19.99627 4.636107,35.61057 12.679119,51.67761 14.222521,28.41225 44.012766,54.40769 73.66761,64.28362 17.625721,5.86994 23.088231,6.6017 45.557161,6.10297 18.66523,-0.41432 22.46024,-0.96767 35.12616,-5.12199 z m -68.01011,-8.38294 c -17.918218,-4.96904 -37.688048,-15.3712 -41.009653,-21.57803 -0.874301,-1.63381 -1.589802,-5.4605 -1.589802,-8.50378 0,-5.16548 1.762902,-7.31607 26.531239,-32.36481 14.592316,-14.75741 28.509136,-27.86554 30.926246,-29.12917 4.1671,-2.17838 4.5397,-2.1187 7.18731,1.15075 2.5986,3.20925 2.7602,6.22459 2.3314,43.50099 l -0.4611,40.0527 -3.73701,3.73205 c -4.7999,4.79396 -10.82941,5.73201 -20.17863,3.1393 z m 43.34697,0.74679 c -1.6442,-0.67293 -4.33471,-2.7175 -5.97881,-4.54346 -2.805,-3.115 -3.0143,-5.73217 -3.3899,-42.4023 -0.42151,-41.13483 0.2125,-45.90315 6.2559,-47.06698 1.98701,-0.38269 11.12352,7.82463 31.72515,28.49862 28.01694,28.11535 28.93445,29.22756 28.93445,35.07492 0,3.7495 -1.11891,7.46122 -2.95121,9.79083 -4.0543,5.15425 -23.94623,15.24152 -37.41705,18.97452 -12.23342,3.39005 -12.84082,3.44926 -17.17853,1.67385 z M 45.19461,205.75633 c -4.845507,-3.81139 -16.598625,-27.42461 -19.668729,-39.51607 -2.695604,-10.61679 -1.920003,-15.54918 3.202104,-20.36472 3.752706,-3.52795 4.028906,-3.55339 42.895665,-3.95121 41.09256,-0.42061 45.94056,0.21738 47.09217,6.19713 0.3672,1.90828 -8.21742,11.47575 -28.466942,31.72534 -28.142542,28.14251 -29.171044,28.99304 -35.063653,28.99304 -3.869006,0 -7.492211,-1.11826 -9.990615,-3.08351 z m 147.45632,-22.70045 c -14.33392,-14.18116 -27.47764,-28.07072 -29.20855,-30.86569 l -3.1473,-5.08173 3.523,-2.85281 c 3.30351,-2.675 5.99801,-2.82408 43.23357,-2.39186 43.64786,0.50665 45.08127,0.79321 47.98547,9.59319 2.6607,8.06165 -4.24601,30.62813 -14.07732,45.9974 -5.99881,9.37736 -8.94741,11.38546 -16.71903,11.38546 -5.1541,0 -7.29381,-1.74646 -31.58984,-25.78396 z M 35.259095,131.6705 C 21.752875,127.0032 20.593973,116.94044 30.731788,92.355653 39.030401,72.231663 45.27321,65.346572 55.221925,65.346572 c 5.563809,0 7.098811,1.240422 31.906348,25.783929 14.333517,14.181169 27.449337,28.025159 29.145937,30.764409 2.87871,4.64809 2.91831,5.14683 0.5938,7.47361 -2.18,2.18229 -7.28301,2.52953 -40.928654,2.78496 -21.141031,0.1605 -39.447159,-0.0568 -40.680261,-0.48297 z m 130.053895,-0.9407 c -2.04791,-1.06297 -3.96531,-3.18855 -4.26091,-4.72353 -0.7441,-3.86366 55.64668,-59.961077 61.29469,-60.975808 5.51981,-0.991682 12.16142,2.125883 15.99313,7.507131 5.058,7.103301 13.33102,25.556199 15.87482,35.408527 2.7368,10.59967 1.9693,15.53897 -3.16371,20.36471 -3.7525,3.52796 -4.0288,3.55341 -42.89566,3.95124 -29.72124,0.30421 -40.01336,-0.0638 -42.84236,-1.53227 z M 97.127288,87.393696 C 77.962059,68.101977 68.306645,57.30739 67.826844,54.636046 66.835143,49.116278 69.952747,42.474578 75.334055,38.642802 82.437166,33.584795 100.89009,25.311762 110.7424,22.768009 c 10.60102,-2.737025 15.53973,-1.969313 20.36484,3.165554 l 3.5508,3.778846 v 41.105012 c 0,38.964069 -0.1511,41.215539 -2.9015,43.227319 -1.59581,1.16731 -3.60871,2.12235 -4.47321,2.12235 -0.8643,0 -14.43462,-12.94802 -30.156042,-28.773394 z m 49.431572,25.159514 c -3.37031,-5.14361 -2.67371,-80.466687 0.7923,-85.699185 3.2658,-4.930188 10.16731,-6.76569 18.45553,-4.908298 17.27972,3.872506 40.69506,15.673944 44.23966,22.297094 2.31901,4.333036 1.94541,10.933436 -0.8583,15.165953 -3.6127,5.453478 -45.17967,47.397206 -51.95968,52.430636 -7.06971,5.24834 -7.67181,5.28863 -10.66951,0.7138 z"
         id="path1805" />
      <path
         id="path1807"
         style="fill:#00832d;fill-opacity:1;stroke-width:0.999997"
         d="m 185.18302,141.80959 c -6.80851,0.41387 -13.11952,-0.54339 -20.47273,2.06849 -3.66871,1.34438 -4.02431,4.54934 -1.51351,7.7587 6.15551,8.40736 13.97492,15.39588 21.06133,22.98941 10.74302,10.83431 21.45554,21.75407 33.01625,31.71842 5.67121,4.46678 14.53293,3.26806 19.09473,-2.22365 5.04681,-6.07541 8.72072,-13.19942 12.04462,-20.33167 3.77981,-8.80759 6.81051,-18.16454 7.32311,-27.78463 0.091,-4.7982 -1.9949,-10.50463 -7.17151,-11.72634 -6.90151,-2.08305 -14.22742,-1.45054 -21.33643,-1.952 -14.01222,-0.37244 -28.03014,-0.40081 -42.04586,-0.51673 z"
         sodipodi:nodetypes="cccccsccccc" />
      <path
         id="path1809"
         style="fill:#ffba00;fill-opacity:1;stroke-width:0.999997"
         d="m 224.46128,64.847742 c -0.71731,-7.9e-4 -1.42481,0.0586 -2.11471,0.18255 -5.64801,1.014711 -62.03859,57.112408 -61.29449,60.976078 0.2956,1.53497 2.2131,3.66036 4.26111,4.72333 2.8291,1.46838 13.12092,1.83669 42.84216,1.53248 38.86686,-0.39782 39.14326,-0.4235 42.89586,-3.95146 5.13311,-4.82574 5.90011,-9.76487 3.16341,-20.36454 -2.5438,-9.852318 -10.81672,-28.305196 -15.87472,-35.408497 -3.35281,-4.708577 -8.85712,-7.684001 -13.87862,-7.689941 z" />
      <path
         id="path1811"
         style="fill:#e94235;fill-opacity:1;stroke-width:0.999997"
         d="m 120.57212,21.212896 c -2.6753,-0.005 -5.85421,0.528611 -9.82952,1.554993 -9.85251,2.543763 -28.305234,10.817016 -35.408445,15.875023 -5.381408,3.831776 -8.499212,10.473206 -7.507511,15.992974 0.479901,2.671334 10.135515,13.466091 29.300844,32.75779 15.721222,15.825374 29.291742,28.773424 30.156242,28.773424 0.8642,0 2.877,-0.95492 4.47271,-2.12223 2.7505,-2.01179 2.9016,-4.26358 2.9016,-43.227639 V 29.712219 l -3.5508,-3.778506 c -3.01581,-3.209274 -6.07591,-4.712807 -10.53512,-4.720817 z" />
      <path
         d="m 129.39903,158.4534 c -0.8788,0.015 -1.9758,0.53942 -3.799,1.49246 -2.41691,1.26364 -16.33373,14.37197 -30.925846,29.12937 -24.768537,25.04874 -26.531239,27.19929 -26.531239,32.36477 0,3.04328 0.715301,6.87011 1.589602,8.5039 3.321805,6.20685 23.091635,16.60875 41.009853,21.57779 9.34922,2.59271 15.37873,1.65482 20.17863,-3.13917 l 3.73701,-3.73224 0.4608,-40.05263 c 0.4291,-37.27639 0.2674,-40.29182 -2.3315,-43.50107 -1.489,-1.83906 -2.25841,-2.66235 -3.38831,-2.64318 z"
         style="fill:#0066da;fill-opacity:1;stroke-width:0.999997"
         id="path1813" />
      <path
         id="path1815"
         style="fill:#2684fc;fill-opacity:1;stroke-width:0.999997"
         d="m 85.39807,141.82471 c -4.067506,0.0111 -8.638113,0.047 -13.77452,0.0996 -38.866859,0.39782 -39.142859,0.42307 -42.895465,3.95103 -5.122207,4.81554 -5.897808,9.74817 -3.202204,20.36497 3.070104,12.09146 14.823122,35.70444 19.668429,39.51583 2.498404,1.96522 6.122209,3.08374 9.991015,3.08374 5.892709,0 6.921011,-0.85055 35.063553,-28.99307 20.249522,-20.24958 28.834242,-29.81718 28.467042,-31.72546 -1.00761,-5.23228 -4.84551,-6.37455 -33.31785,-6.29664 z" />
      <path
         id="path1817"
         style="fill:#2684fc;fill-opacity:1;stroke-width:0.999997"
         d="m 55.221525,65.346612 c -9.948415,0 -16.191324,6.885221 -24.489737,27.009201 -10.137815,24.584777 -8.979213,34.647237 4.527107,39.314547 1.233102,0.42617 19.53933,0.64355 40.680361,0.48304 33.645744,-0.25542 38.749054,-0.60262 40.929154,-2.7849 2.32451,-2.32678 2.28451,-2.82554 -0.5944,-7.47364 -1.6965,-2.73924 -14.81192,-16.58319 -29.145637,-30.764359 C 62.320936,66.586984 60.785634,65.346612 55.221525,65.346612 Z" />
      <path
         id="path1819"
         style="fill:#00ac47;fill-opacity:1;stroke-width:0.999997"
         d="m 151.07486,158.24404 c -0.033,0.002 -0.065,0.006 -0.099,0.0111 -6.0434,1.16382 -6.67721,5.93215 -6.2556,47.067 0.3757,36.67011 0.5845,39.28743 3.3896,42.40244 1.644,1.82595 4.33481,3.87032 5.97891,4.54327 4.33781,1.7754 4.94491,1.71628 17.17833,-1.67379 13.47092,-3.73298 33.36295,-13.82032 37.41725,-18.97457 1.8325,-2.32963 2.95121,-6.04142 2.95121,-9.79091 0,-5.84738 -0.91771,-6.95934 -28.93465,-35.07468 -20.27963,-20.35097 -29.44964,-28.62197 -31.62675,-28.51043 z" />
      <path
         d="M 393.62943,130.83921 377.96491,79.795974 h -0.40061 q 0.84561,15.575533 0.84561,20.782206 v 30.26103 H 366.08289 V 65.778003 h 18.77963 l 15.39762,49.752687 h 0.2669 l 16.33212,-49.752687 h 18.77963 v 65.061207 h -12.86092 v -30.79505 q 0,-2.180569 0.045,-5.028673 0.089,-2.848084 0.623,-15.130493 h -0.4005 l -16.77712,50.954216 z"
         style="font-style:normal;font-variant:normal;font-weight:bold;font-stretch:normal;font-size:69.469px;line-height:0.85;font-family:'Open Sans';-inkscape-font-specification:'Open Sans Bold';text-align:start;letter-spacing:0px;word-spacing:0px;text-anchor:start;fill:#0066da;fill-opacity:1;stroke-width:0.264584"
         id="path899" />
      <path
         d="m 471.59595,89.808829 q -4.31661,0 -6.76421,2.759084 -2.44751,2.714594 -2.80361,7.743257 h 19.04673 q -0.089,-5.028663 -2.6256,-7.743257 -2.53661,-2.759084 -6.85331,-2.759084 z m 1.9136,41.920401 q -12.01532,0 -18.77963,-6.63072 -6.76421,-6.63072 -6.76421,-18.77963 0,-12.504925 6.23021,-19.313655 6.27471,-6.85323 17.31113,-6.85323 10.54681,0 16.42102,6.007699 5.87421,6.007709 5.87421,16.599076 v 6.58622 h -32.08555 q 0.2225,5.78519 3.42661,9.03379 3.204,3.24861 8.98931,3.24861 4.49451,0 8.49971,-0.93453 4.00511,-0.93453 8.36631,-2.9816 v 10.50235 q -3.5601,1.78007 -7.60981,2.6256 -4.0495,0.89002 -9.87931,0.89002 z"
         style="font-style:normal;font-variant:normal;font-weight:bold;font-stretch:normal;font-size:69.469px;line-height:0.85;font-family:'Open Sans';-inkscape-font-specification:'Open Sans Bold';text-align:start;letter-spacing:0px;word-spacing:0px;text-anchor:start;fill:#0066da;fill-opacity:1;stroke-width:0.264584"
         id="path901" />
      <path
         d="m 525.53173,89.808829 q -4.31651,0 -6.76421,2.759084 -2.44751,2.714594 -2.80351,7.743257 h 19.04663 q -0.089,-5.028663 -2.6256,-7.743257 -2.53661,-2.759084 -6.85331,-2.759084 z m 1.9136,41.920401 q -12.01532,0 -18.77963,-6.63072 -6.76421,-6.63072 -6.76421,-18.77963 0,-12.504925 6.23031,-19.313655 6.27461,-6.85323 17.31103,-6.85323 10.54681,0 16.42102,6.007699 5.87421,6.007709 5.87421,16.599076 v 6.58622 h -32.08555 q 0.2225,5.78519 3.42661,9.03379 3.2041,3.24861 8.98931,3.24861 4.49471,0 8.49971,-0.93453 4.00511,-0.93453 8.36632,-2.9816 v 10.50235 q -3.56011,1.78007 -7.60972,2.6256 -4.0497,0.89002 -9.87941,0.89002 z"
         style="font-style:normal;font-variant:normal;font-weight:bold;font-stretch:normal;font-size:69.469px;line-height:0.85;font-family:'Open Sans';-inkscape-font-specification:'Open Sans Bold';text-align:start;letter-spacing:0px;word-spacing:0px;text-anchor:start;fill:#0066da;fill-opacity:1;stroke-width:0.264584"
         id="path903" />
      <path
         d="m 579.82361,120.91536 q 3.5602,0 8.54441,-1.55754 v 10.10184 q -5.07331,2.26957 -12.46042,2.26957 -8.14391,0 -11.88202,-4.09413 -3.6936,-4.13864 -3.6936,-12.37142 V 91.277371 h -6.49721 v -5.740688 l 7.47631,-4.539157 3.91611,-10.502356 h 8.67771 v 10.591356 h 13.92902 V 91.277371 H 573.9049 v 23.986309 q 0,2.8926 1.6022,4.27214 1.6464,1.37954 4.31651,1.37954 z"
         style="font-style:normal;font-variant:normal;font-weight:bold;font-stretch:normal;font-size:69.469px;line-height:0.85;font-family:'Open Sans';-inkscape-font-specification:'Open Sans Bold';text-align:start;letter-spacing:0px;word-spacing:0px;text-anchor:start;fill:#0066da;fill-opacity:1;stroke-width:0.264584"
         id="path905" />
      <path
         d="m 313.83821,173.65729 h 4.45011 q 6.54171,0 9.65681,-2.18057 3.1152,-2.18057 3.1152,-6.85323 0,-4.62816 -3.2042,-6.58622 -3.1596,-1.95807 -9.83481,-1.95807 h -4.18311 z m 0,11.21439 v 24.96534 h -13.79552 v -65.06121 h 18.95763 q 13.26142,0 19.62513,4.85067 6.36371,4.80615 6.36371,14.64099 0,5.7407 -3.15951,10.23535 -3.1597,4.45015 -8.94481,6.98673 14.68542,21.93926 19.13563,28.34747 h -15.30863 l -15.53092,-24.96534 z"
         style="font-style:normal;font-variant:normal;font-weight:bold;font-stretch:normal;font-size:69.469px;line-height:0.85;font-family:'Open Sans';-inkscape-font-specification:'Open Sans Bold';text-align:start;letter-spacing:0px;word-spacing:0px;text-anchor:start;fill:#0066da;fill-opacity:1;stroke-width:0.264584"
         id="path907" />
      <path
         d="m 379.74491,168.80664 q -4.31671,0 -6.76421,2.75908 -2.44761,2.71459 -2.80361,7.74326 h 19.04663 q -0.089,-5.02867 -2.6256,-7.74326 -2.53651,-2.75908 -6.85321,-2.75908 z m 1.9136,41.9204 q -12.01542,0 -18.77973,-6.63072 -6.76421,-6.63072 -6.76421,-18.77963 0,-12.50493 6.23021,-19.31366 6.27481,-6.85323 17.31103,-6.85323 10.54701,0 16.42112,6.0077 5.87421,6.00771 5.87421,16.59908 v 6.58621 h -32.08555 q 0.2225,5.78519 3.42651,9.0338 3.2042,3.24861 8.98931,3.24861 4.49471,0 8.49981,-0.93453 4.00521,-0.93453 8.36632,-2.9816 v 10.50235 q -3.56001,1.78007 -7.60971,2.6256 -4.04971,0.89002 -9.87932,0.89002 z"
         style="font-style:normal;font-variant:normal;font-weight:bold;font-stretch:normal;font-size:69.469px;line-height:0.85;font-family:'Open Sans';-inkscape-font-specification:'Open Sans Bold';text-align:start;letter-spacing:0px;word-spacing:0px;text-anchor:start;fill:#0066da;fill-opacity:1;stroke-width:0.264584"
         id="path909" />
      <path
         d="m 433.28019,210.72704 q -23.22974,0 -23.22974,-25.49936 0,-12.68293 6.31921,-19.35815 6.31921,-6.71973 18.11213,-6.71973 8.63331,0 15.48652,3.38212 l -4.0051,10.50235 q -3.20421,-1.29055 -5.96331,-2.09156 -2.75901,-0.84553 -5.51811,-0.84553 -10.59142,0 -10.59142,15.0415 0,14.59649 10.59142,14.59649 3.91611,0 7.25371,-1.02354 3.33771,-1.06803 6.67521,-3.2931 v 11.61489 q -3.2931,2.09158 -6.67521,2.89261 -3.3376,0.80101 -8.45531,0.80101 z"
         style="font-style:normal;font-variant:normal;font-weight:bold;font-stretch:normal;font-size:69.469px;line-height:0.85;font-family:'Open Sans';-inkscape-font-specification:'Open Sans Bold';text-align:start;letter-spacing:0px;word-spacing:0px;text-anchor:start;fill:#0066da;fill-opacity:1;stroke-width:0.264584"
         id="path912" />
      <path
         d="m 470.70594,184.87168 q 0,7.38724 2.40311,11.16987 2.4475,3.78262 7.92121,3.78262 5.42921,0 7.78781,-3.73811 2.40311,-3.78264 2.40311,-11.21438 0,-7.38725 -2.40311,-11.08089 -2.4031,-3.69361 -7.87671,-3.69361 -5.42921,0 -7.83231,3.69361 -2.40311,3.64914 -2.40311,11.08089 z m 34.39976,0 q 0,12.14891 -6.40831,19.00213 -6.40821,6.85323 -17.84503,6.85323 -7.16471,0 -12.63842,-3.1151 -5.47381,-3.1596 -8.41081,-9.03381 -2.93711,-5.87419 -2.93711,-13.70645 0,-12.19343 6.36371,-18.95765 6.36371,-6.76423 17.88963,-6.76423 7.16471,0 12.63842,3.11512 5.47371,3.1151 8.41071,8.94479 2.93721,5.82969 2.93721,13.66197 z"
         style="font-style:normal;font-variant:normal;font-weight:bold;font-stretch:normal;font-size:69.469px;line-height:0.85;font-family:'Open Sans';-inkscape-font-specification:'Open Sans Bold';text-align:start;letter-spacing:0px;word-spacing:0px;text-anchor:start;fill:#0066da;fill-opacity:1;stroke-width:0.264584"
         id="path914" />
      <path
         d="m 544.08905,159.1498 q 2.75901,0 4.58361,0.40051 l -1.0236,12.72744 q -1.6466,-0.44503 -4.00511,-0.44503 -6.49721,0 -10.14631,3.33763 -3.60461,3.33761 -3.60461,9.34531 v 25.32136 h -13.57302 v -49.75269 h 10.27982 l 2.0027,8.36629 h 0.6675 q 2.31401,-4.18315 6.23011,-6.71973 3.96061,-2.58109 8.58891,-2.58109 z"
         style="font-style:normal;font-variant:normal;font-weight:bold;font-stretch:normal;font-size:69.469px;line-height:0.85;font-family:'Open Sans';-inkscape-font-specification:'Open Sans Bold';text-align:start;letter-spacing:0px;word-spacing:0px;text-anchor:start;fill:#0066da;fill-opacity:1;stroke-width:0.264584"
         id="path916" />
      <path
         d="m 573.549,210.72704 q -8.76681,0 -13.79562,-6.80872 -4.98401,-6.80873 -4.98401,-18.86864 0,-12.23792 5.07311,-19.04665 5.11761,-6.85323 14.06242,-6.85323 9.38981,0 14.32952,7.29824 h 0.445 q -1.0235,-5.56269 -1.0235,-9.92383 v -15.93154 h 13.61752 v 69.24435 h -10.41342 l -2.6256,-6.45272 h -0.5785 q -4.62821,7.34274 -14.10692,7.34274 z m 4.76171,-10.81387 q 5.2065,0 7.60961,-3.02609 2.4477,-3.02611 2.6702,-10.27985 v -1.46855 q 0,-8.01027 -2.4922,-11.48139 -2.44751,-3.47111 -8.01011,-3.47111 -4.53921,0 -7.07582,3.87163 -2.4921,3.82712 -2.4921,11.16987 0,7.34276 2.5365,11.03638 2.53671,3.64911 7.25392,3.64911 z"
         style="font-style:normal;font-variant:normal;font-weight:bold;font-stretch:normal;font-size:69.469px;line-height:0.85;font-family:'Open Sans';-inkscape-font-specification:'Open Sans Bold';text-align:start;letter-spacing:0px;word-spacing:0px;text-anchor:start;fill:#0066da;fill-opacity:1;stroke-width:0.264584"
         id="path918" />
      <path
         d="m 636.07359,168.80664 q -4.3166,0 -6.76421,2.75908 -2.4477,2.71459 -2.8036,7.74326 h 19.04663 q -0.089,-5.02867 -2.62561,-7.74326 -2.5366,-2.75908 -6.85321,-2.75908 z m 1.91351,41.9204 q -12.01542,0 -18.77963,-6.63072 -6.76421,-6.63072 -6.76421,-18.77963 0,-12.50493 6.23031,-19.31366 6.27471,-6.85323 17.31102,-6.85323 10.54692,0 16.42113,6.0077 5.87401,6.00771 5.87401,16.59908 v 6.58621 h -32.08555 q 0.2225,5.78519 3.4267,9.0338 3.20411,3.24861 8.98922,3.24861 4.4947,0 8.49981,-0.93453 4.00521,-0.93453 8.36641,-2.9816 v 10.50235 q -3.5602,1.78007 -7.60981,2.6256 -4.04971,0.89002 -9.87941,0.89002 z"
         style="font-style:normal;font-variant:normal;font-weight:bold;font-stretch:normal;font-size:69.469px;line-height:0.85;font-family:'Open Sans';-inkscape-font-specification:'Open Sans Bold';text-align:start;letter-spacing:0px;word-spacing:0px;text-anchor:start;fill:#0066da;fill-opacity:1;stroke-width:0.264584"
         id="path920" />
      <path
         d="m 697.17418,159.1498 q 2.75911,0 4.58361,0.40051 l -1.0235,12.72744 q -1.6465,-0.44503 -4.00511,-0.44503 -6.49731,0 -10.14641,3.33763 -3.60461,3.33761 -3.60461,9.34531 v 25.32136 h -13.57292 v -49.75269 h 10.27982 l 2.0026,8.36629 h 0.6675 q 2.31411,-4.18315 6.23011,-6.71973 3.96081,-2.58109 8.58891,-2.58109 z"
         style="font-style:normal;font-variant:normal;font-weight:bold;font-stretch:normal;font-size:69.469px;line-height:0.85;font-family:'Open Sans';-inkscape-font-specification:'Open Sans Bold';text-align:start;letter-spacing:0px;word-spacing:0px;text-anchor:start;fill:#0066da;fill-opacity:1;stroke-width:0.264584"
         id="path922" />
      <path
         id="path1821"
         style="fill:#0066da;fill-opacity:1;stroke-width:0.26458"
         d="m 325.12253,65.778013 c -12.29952,0 -23.54694,6.93247 -29.06845,17.928857 -4.6139,9.191574 -4.6139,20.02041 0,29.21196 5.52151,10.9844 16.76893,17.917 29.06845,17.917 8.77301,0 16.17202,-2.88052 21.56223,-7.8528 v -0.005 c 6.15211,-5.66549 9.68831,-14.0303 9.68831,-23.924117 0,-2.211223 -0.182,-4.434267 -0.5618,-6.60964 h -30.68244 v 12.526217 h 17.57042 c -0.7292,4.03994 -3.0717,7.61393 -6.50231,9.88489 v 0.005 c -2.9142,1.97915 -6.67541,3.09976 -11.05601,3.09976 -8.48642,0 -15.68173,-5.7254 -18.26313,-13.42285 v 0 c -1.3627,-4.04001 -1.3627,-8.414551 0,-12.454537 2.5694,-7.709392 9.77631,-13.434741 18.26313,-13.434741 4.6373,-0.0718 9.11961,1.673433 12.47861,4.876728 l 9.28692,-9.287424 c -5.88021,-5.522138 -13.68562,-8.557903 -21.76553,-8.462333 z" />
    </g>
  </g>
</svg>
